<svg id="Layer_1" data-name="Layer 1" xmlns="http://www.w3.org/2000/svg" viewBox="0 0 452.52 464.16"><defs><style>.cls-1{fill:#71c4e9;}.cls-2{fill:#1eb7d3;}.cls-3{fill:#1097d2;}.cls-4{fill:#035073;}.cls-5{fill:#81cdec;}.cls-6{fill:#137dab;}</style></defs><polygon class="cls-1" points="209.97 32.6 249.47 0.07 246.15 82 209.97 32.6"/><polygon class="cls-2" points="249.48 0 286.88 0.5 247.01 61.13 249.48 0"/><polygon class="cls-3" points="286.83 0.53 308.34 14.4 263 36.97 286.83 0.53"/><polygon class="cls-4" points="308.27 14.34 314.58 27.73 285.91 25.56 308.27 14.34"/><polygon class="cls-5" points="209.9 70.87 209.9 32.67 173.71 82.09 184.53 114.37 209.9 70.87"/><polygon class="cls-3" points="184.53 114.37 173.71 82.09 158.06 159.6 158.16 159.6 184.53 114.37"/><polygon class="cls-3" points="209.94 70.79 235.29 114.27 246.09 82.09 209.9 32.67 209.9 70.87 209.94 70.79"/><polygon class="cls-5" points="261.73 159.6 261.74 159.6 246.09 82.09 235.29 114.27 261.73 159.6"/><polygon class="cls-6" points="261.74 159.62 261.73 159.6 235.29 114.26 220.09 159.6 209.94 189.85 209.94 189.96 261.45 160.22 261.78 159.78 261.74 159.62"/><polygon class="cls-4" points="199.71 159.6 184.53 114.37 158.16 159.6 158.08 159.74 158.5 160.31 209.9 189.99 199.71 159.6"/><polygon class="cls-1" points="209.94 70.79 209.9 70.87 184.53 114.37 199.71 159.6 209.9 189.99 209.94 189.85 220.09 159.6 235.29 114.26 209.94 70.79"/><polygon class="cls-1" points="398.68 170.93 441.63 198.75 362.52 220.35 398.68 170.93"/><polygon class="cls-2" points="441.69 198.75 452.51 234.55 382.68 214.86 441.69 198.75"/><polygon class="cls-3" points="452.48 234.51 445.75 259.21 410.54 222.8 452.48 234.51"/><polygon class="cls-4" points="445.78 259.12 434.93 269.19 428.33 241.2 445.78 259.12"/><polygon class="cls-5" points="362.17 182.43 398.59 170.88 340.55 151.32 313.05 171.39 362.17 182.43"/><polygon class="cls-3" points="313.05 171.39 340.55 151.32 261.92 159.82 261.95 159.92 313.05 171.39"/><polygon class="cls-3" points="362.26 182.45 328.48 219.75 362.42 220.31 398.59 170.88 362.17 182.43 362.26 182.45"/><polygon class="cls-5" points="293.25 258.65 293.25 258.66 362.42 220.31 328.48 219.75 293.25 258.65"/><polygon class="cls-6" points="280.67 218.96 248.77 218.43 248.67 218.46 292.58 258.57 293.1 258.75 293.24 258.67 293.25 258.65 328.48 219.75 280.67 218.96"/><polygon class="cls-4" points="261.95 159.92 261.81 159.88 261.38 160.46 248.63 218.42 274.51 199.53 313.05 171.39 261.95 159.92"/><polygon class="cls-1" points="362.17 182.43 313.05 171.39 274.51 199.53 248.63 218.42 248.77 218.43 280.67 218.96 328.48 219.75 362.26 182.45 362.17 182.43"/><polygon class="cls-1" points="323.87 392.71 310.26 442.04 265.87 373.09 323.87 392.71"/><polygon class="cls-2" points="310.28 442.1 279.39 463.19 277.16 390.67 310.28 442.1"/><polygon class="cls-3" points="279.42 463.14 253.84 464.16 277.97 419.62 279.42 463.14"/><polygon class="cls-4" points="253.94 464.16 241.07 456.84 265.78 442.13 253.94 464.16"/><polygon class="cls-2" points="292.09 258.41 248.61 218.48 210.13 230.67 210.08 230.75 210.18 230.78 210.18 230.87 233.38 263.89 292.18 258.49 292.09 258.41"/><polygon class="cls-5" points="301.92 361.35 323.89 392.61 325.08 331.37 297.67 311.18 301.92 361.35"/><polygon class="cls-3" points="297.67 311.18 325.08 331.37 293.33 258.94 293.25 259 297.67 311.18"/><polygon class="cls-3" points="301.93 361.44 256.2 340.45 265.87 372.98 323.89 392.61 301.92 361.35 301.93 361.44"/><polygon class="cls-5" points="208.5 318.55 208.49 318.56 265.87 372.98 256.2 340.45 208.5 318.55"/><polygon class="cls-6" points="242.57 294.61 233.48 264.03 233.42 263.94 208.37 317.89 208.36 318.43 208.48 318.55 208.5 318.55 256.2 340.45 242.57 294.61"/><polygon class="cls-4" points="293.25 259 293.23 258.85 292.55 258.62 233.44 263.89 259.25 282.89 297.67 311.18 293.25 259"/><polygon class="cls-1" points="301.92 361.35 297.67 311.18 259.25 282.89 233.44 263.89 233.48 264.03 242.57 294.61 256.2 340.45 301.93 361.44 301.92 361.35"/><polygon class="cls-1" points="89.94 388.02 38.8 389.95 91.11 326.8 89.94 388.02"/><polygon class="cls-2" points="38.75 389.99 9.31 366.92 77.77 342.88 38.75 389.99"/><polygon class="cls-3" points="9.36 366.93 0.67 342.86 50.41 352.4 9.36 366.93"/><polygon class="cls-4" points="0.69 342.95 3.79 328.47 25.27 347.58 0.69 342.95"/><polygon class="cls-5" points="113.19 357.62 90.03 388.01 148.77 370.64 159.73 338.41 113.19 357.62"/><polygon class="cls-3" points="159.73 338.41 148.77 370.64 208.22 318.48 208.14 318.42 159.73 338.41"/><polygon class="cls-3" points="113.11 357.66 119.3 307.72 91.22 326.76 90.03 388.01 113.19 357.62 113.11 357.66"/><polygon class="cls-5" points="125.76 255.63 125.76 255.63 91.22 326.76 119.3 307.72 125.76 255.63"/><polygon class="cls-6" points="126.36 255.31 125.84 255.46 125.76 255.61 125.76 255.63 119.3 307.72 158.88 280.88 185.28 262.97 185.35 262.88 126.36 255.31"/><polygon class="cls-4" points="185.41 262.89 175.09 293.23 159.73 338.41 208.14 318.42 208.28 318.37 208.29 317.65 185.41 262.89"/><polygon class="cls-1" points="185.28 262.97 158.88 280.88 119.3 307.72 113.11 357.66 113.19 357.62 159.73 338.41 175.09 293.23 185.41 262.89 185.28 262.97"/><polygon class="cls-1" points="19.29 166.56 0.06 119.41 78.35 149.3 19.29 166.56"/><polygon class="cls-2" points="0 119.38 12.15 84.79 58.45 141.68 0 119.38"/><polygon class="cls-3" points="12.15 84.85 32.38 69.38 40.07 118.98 12.15 84.85"/><polygon class="cls-4" points="32.3 69.43 47.31 67.97 36.19 93.96 32.3 69.43"/><polygon class="cls-5" points="56.23 179.07 19.33 166.64 55.73 215.9 90.16 216.42 56.23 179.07"/><polygon class="cls-3" points="90.16 216.42 55.73 215.9 125.22 255.15 125.25 255.06 90.16 216.42"/><polygon class="cls-3" points="56.17 179 106.05 169.82 78.42 149.39 19.33 166.64 56.23 179.07 56.17 179"/><polygon class="cls-5" points="158.1 160.23 158.1 160.23 78.42 149.39 106.05 169.82 158.1 160.23"/><polygon class="cls-6" points="158.6 160.69 158.28 160.25 158.12 160.23 158.1 160.23 106.05 169.82 144.84 198.5 170.62 217.56 170.73 217.59 158.6 160.69"/><polygon class="cls-4" points="138.38 217.15 90.16 216.42 125.25 255.06 125.35 255.17 126.04 254.97 170.74 217.64 138.38 217.15"/><polygon class="cls-1" points="170.62 217.56 144.84 198.5 106.05 169.82 56.17 179 56.23 179.07 90.16 216.42 138.38 217.15 170.74 217.64 170.62 217.56"/><polygon class="cls-1" points="158.74 160.64 158.9 161.1 170.79 217.61 209.41 230.62 209.5 230.59 209.89 230.46 209.94 230.38 209.94 190.02 158.74 160.64"/><polygon class="cls-3" points="261.15 160.64 209.94 190.02 209.94 230.38 210 230.46 210.05 230.64 210.13 230.67 248.61 218.48 261.15 160.78 261.15 160.64"/><polygon class="cls-5" points="208.38 317.37 233.38 263.89 210.18 230.87 210.09 230.84 209.95 230.71 209.86 230.74 185.39 262.84 208.3 317.25 208.38 317.37"/><polygon class="cls-2" points="209.46 230.69 209.41 230.62 170.79 217.61 126.42 254.86 126.85 255.16 185.39 262.84 209.86 230.74 209.86 230.65 209.46 230.69"/></svg>