<?xml version="1.0" encoding="UTF-8"?>
<svg width="92px" height="23px" viewBox="0 0 92 23" version="1.1" xmlns="http://www.w3.org/2000/svg" xmlns:xlink="http://www.w3.org/1999/xlink">
    <!-- Generator: Sketch 49.3 (51167) - http://www.bohemiancoding.com/sketch -->
    <title>Group 2</title>
    <desc>Created with Sketch.</desc>
    <defs></defs>
    <g id="Symbols" stroke="none" stroke-width="1" fill="none" fill-rule="evenodd">
        <g id="Logo-Nav" transform="translate(-61.000000, -4.000000)">
            <g id="Group-2" transform="translate(61.000000, 4.000000)">
                <g id="Group">
                    <g id="EOS42-Logo">
                        <polygon id="Fill-1" fill="#FEFEFE" points="0 1 14 1 14 2.77267105 2.08143737 2.77267105 2.08143737 10.9396558 11.9855449 10.9396558 11.9855449 12.6804141 2.08143737 12.6804141 2.08143737 21.2589058 14 21.2589058 14 23 0 23"></polygon>
                        <path d="M33.8784006,11.6126514 C33.8784006,5.34001722 32.5856004,1.80139812 26.9834662,1.80139812 C21.3482645,1.80139812 20.1215994,5.30792864 20.1215994,11.6126514 C20.1215994,17.9494627 21.2487101,21.1986019 26.9834662,21.1986019 C32.7182223,21.1986019 33.8784006,18.1747655 33.8784006,11.6126514 M18,11.6126514 C18,4.24627464 19.8894231,0 26.9834662,0 C34.0771576,0 36,4.21418606 36,11.6126514 C36,19.3005967 34.1105769,23 26.9834662,23 C19.8563555,23 18,19.0432053 18,11.6126514" id="Fill-2" fill="#FEFEFE"></path>
                        <path d="M53.3635136,2.31941678 C53.3635136,2.31941678 48.9726014,1.77178146 47.1272973,1.77178146 C43.8179056,1.77178146 42.0043413,2.96379418 42.0043413,5.73410422 C42.0043413,9.05170774 43.6909459,9.53507625 47.6044089,10.3083291 C51.9318412,11.1779822 54,12.2407776 54,16.2031004 C54,21.1636099 51.4226521,23 47.0634798,23 C44.5499494,23 40.1593748,22.387756 40.1593748,22.387756 L40.3818919,20.6805832 C40.3818919,20.6805832 44.7407264,21.2282185 47,21.2282185 C50.3090541,21.2282185 51.995321,19.7784549 51.995321,16.3319759 C51.995321,13.5291906 50.5636486,12.8208882 46.8727027,12.1443774 C42.3862332,11.2743824 40,10.3083291 40,5.86263785 C40,1.61077257 42.7363851,0 47,0 C49.5773479,0 53.5225508,0.612243988 53.5225508,0.612243988 L53.3635136,2.31941678 Z" id="Fill-4" fill="#FEFEFE"></path>
                        <polygon id="Fill-6" fill="#75C8DD" points="68.262107 18.2455139 59 18.2455139 59 15.5408252 64.4261445 1 68.262107 1 62.5238831 15.1589272 68.262107 15.1589272 68.262107 8.98642912 71.7548814 8.98642912 71.7548814 15.1589272 74 15.1589272 74 18.2455139 71.7548814 18.2455139 71.7548814 22 68.262107 22"></polygon>
                        <path d="M78,23 L78,19.8852267 L83.369207,14.3769631 C86.1693468,11.5245378 87.7837095,9.7869174 87.7837095,7.49189454 C87.7837095,5.03264325 86.4990012,4.24594727 83.6988614,4.24594727 C81.3930284,4.24594727 78.362515,4.83605624 78.362515,4.83605624 L78.1317918,1.95057648 C78.1317918,1.95057648 81.3269577,1 84.5553336,1 C89.3648622,1 91.5717639,2.96726186 91.5717639,7.03261162 C91.5717639,10.3112654 90.1884738,12.2131142 86.828306,15.3278875 L82.1834299,19.8194658 L92,19.8194658 L92,23 L78,23 Z" id="Fill-8" fill="#75C8DD"></path>
                    </g>
                </g>
            </g>
        </g>
    </g>
</svg>